<svg xmlns="http://www.w3.org/2000/svg" width="512" height="512" viewBox="0 0 128 128" role="img" aria-label="Pillowfort Tailored cushion concept"><title>1B — Tailored cushion</title><rect width="128" height="128" rx="24" fill="#2459A6"/>
<path d="M76 38V19l22 8-22 8" fill="#FFD34D" stroke="#102A43" stroke-width="5" stroke-linejoin="round"/>
<path d="M27 39q17 3 37 0t37 0q6 0 5 7c-4 17-4 39 0 58q1 7-6 7H82q-5 0-5-5V87q0-17-13-17T51 87v19q0 5-5 5H28q-7 0-6-7c4-19 4-41 0-58q-1-7 5-7Z" fill="#FFD34D" stroke="#102A43" stroke-width="6" stroke-linejoin="round"/>
<path d="M34 49q28-3 59 0M32 55q2 23-1 44M96 55q-2 23 1 44" fill="none" stroke="#C49028" stroke-width="2.3" stroke-linecap="round"/>
<path d="m28 44 6 6m65-6-6 6m-65 56 6-5m66 5-6-5" stroke="#102A43" stroke-width="2.3" stroke-linecap="round"/>
</svg>
