<svg width="512" height="512" viewBox="0 0 32 32" fill="none" xmlns="http://www.w3.org/2000/svg" role="img" aria-label="Pillowfort logo">
  <rect width="32" height="32" rx="7" fill="#2E6FB6"/>
  <path d="M5.6 25C8.4 26.5 23.6 26.5 26.4 25" stroke="#12375F" stroke-width="2.2" stroke-linecap="round" opacity="0.42"/>
  <path d="M7.2 19.6C6.8 16.9 8.7 14.6 11.4 14.6H13.2C14.6 14.6 15.7 15.7 15.7 17.1V24.1H10.4C8.6 24.1 7.2 22.7 7.2 20.9V19.6Z" fill="#CFE3FF" stroke="#173D6D" stroke-width="1.65" stroke-linejoin="round"/>
  <path d="M24.8 19.6C25.2 16.9 23.3 14.6 20.6 14.6H18.8C17.4 14.6 16.3 15.7 16.3 17.1V24.1H21.6C23.4 24.1 24.8 22.7 24.8 20.9V19.6Z" fill="#8DBDF4" stroke="#173D6D" stroke-width="1.65" stroke-linejoin="round"/>
  <path d="M10.6 15.7C10.4 13.3 12.2 11.2 14.6 11.2H17.4C19.8 11.2 21.6 13.3 21.4 15.7L21.1 19.7H10.9L10.6 15.7Z" fill="#FFF4D0" stroke="#173D6D" stroke-width="1.65" stroke-linejoin="round"/>
  <path d="M9.9 21.4C11.2 19.5 13.2 18.6 16 18.6C18.8 18.6 20.8 19.5 22.1 21.4V24.1H9.9V21.4Z" fill="#F7E7B8" stroke="#173D6D" stroke-width="1.65" stroke-linejoin="round"/>
  <path d="M12.9 24.1C13.3 21.7 14.3 20.6 16 20.6C17.7 20.6 18.7 21.7 19.1 24.1" fill="#315F96" stroke="#173D6D" stroke-width="1.45" stroke-linejoin="round"/>
  <path d="M15.1 22.5C15.4 22.1 15.7 21.9 16 21.9C16.3 21.9 16.6 22.1 16.9 22.5V24.1H15.1V22.5Z" fill="#FFE07A"/>
  <path d="M11.9 17.2C13.1 16.8 14.5 16.6 16 16.6C17.5 16.6 18.9 16.8 20.1 17.2" stroke="#FFFFFF" stroke-width="1" stroke-linecap="round" opacity="0.72"/>
  <path d="M16 11.3V7.4" stroke="#173D6D" stroke-width="1.4" stroke-linecap="round"/>
  <path d="M16 7.6H21.3L19.8 9.1L21.3 10.6H16V7.6Z" fill="#FFCF4D" stroke="#173D6D" stroke-width="1.1" stroke-linejoin="round"/>
  <path d="M4.8 4.8H10.2" stroke="#FFFFFF" stroke-width="1.2" stroke-linecap="round" opacity="0.28"/>
</svg>
